<?xml version="1.0" standalone="no"?>
<!DOCTYPE svg PUBLIC "-//W3C//DTD SVG 20010904//EN"
 "http://www.w3.org/TR/2001/REC-SVG-20010904/DTD/svg10.dtd">
<svg version="1.0" xmlns="http://www.w3.org/2000/svg"
 width="784.000000pt" height="784.000000pt" viewBox="0 0 784.000000 784.000000"
 preserveAspectRatio="xMidYMid meet">
<metadata>
Created by potrace 1.14, written by Peter Selinger 2001-2017
</metadata>
<g transform="translate(0.000000,784.000000) scale(0.100000,-0.100000)"
fill="#000000" stroke="none">
<path d="M2596 6716 c-21 -41 -39 -78 -39 -83 0 -4 -7 -14 -14 -21 -7 -8 -11
-18 -8 -23 4 -5 3 -9 -2 -9 -9 0 -53 -91 -53 -109 0 -6 -4 -11 -8 -11 -6 0
-17 -20 -37 -70 -12 -30 -20 -46 -24 -50 -4 -3 -17 -30 -31 -60 -14 -30 -29
-58 -33 -61 -5 -3 -9 -10 -9 -15 -1 -9 -70 -154 -88 -184 -5 -8 -15 -30 -22
-47 -7 -18 -17 -33 -21 -33 -5 0 -6 -4 -2 -9 3 -5 1 -12 -5 -16 -6 -4 -8 -11
-5 -16 4 -5 1 -9 -4 -9 -6 0 -11 -7 -11 -15 0 -8 -5 -15 -12 -15 -6 0 -8 -3
-5 -6 7 -7 -26 -75 -49 -104 -13 -15 -14 -19 -14 -46 0 -8 -4 -12 -10 -9 -6 4
-10 -5 -10 -19 0 -14 -3 -26 -8 -26 -7 0 -25 -37 -36 -76 -4 -12 -24 -34 -46
-49 -22 -15 -40 -32 -40 -36 0 -5 -7 -9 -15 -9 -8 0 -15 -5 -15 -11 0 -5 -4
-7 -10 -4 -5 3 -10 -1 -10 -9 0 -9 -4 -16 -8 -16 -18 0 -171 -158 -234 -241
-12 -18 -31 -40 -40 -50 -10 -11 -18 -22 -18 -26 0 -4 -25 -6 -55 -5 -30 0
-55 -2 -55 -6 0 -4 -22 -8 -49 -10 -28 -2 -59 -5 -70 -7 -12 -3 -31 -7 -43
-10 -13 -3 -44 -6 -70 -6 -27 -1 -48 -5 -48 -9 0 -5 -33 -9 -127 -13 -7 0 -13
-3 -13 -7 0 -4 -19 -8 -42 -8 -24 -1 -54 -5 -68 -8 -14 -3 -52 -8 -85 -11 -33
-3 -63 -11 -67 -17 -5 -7 -8 -6 -8 4 0 9 -3 11 -8 5 -9 -13 -21 -15 -82 -16
-27 -1 -48 -5 -46 -8 3 -4 -19 -8 -47 -9 -60 -3 -78 -5 -92 -13 -5 -3 -30 -7
-54 -8 -24 -2 -54 -5 -65 -7 -12 -3 -39 -7 -61 -10 -22 -3 -53 -7 -70 -10 -16
-3 -45 -7 -62 -9 -18 -3 -50 -8 -70 -11 -21 -3 -58 -9 -83 -13 l-45 -6 197
-195 c230 -228 407 -397 428 -410 8 -5 12 -10 8 -10 -4 0 16 -21 44 -47 28
-27 157 -152 287 -280 130 -127 252 -247 273 -267 31 -30 38 -45 48 -104 10
-60 9 -83 -9 -173 -11 -57 -23 -126 -26 -154 -4 -27 -9 -53 -11 -57 -2 -3 -7
-33 -10 -65 -3 -32 -8 -65 -11 -73 -2 -8 -7 -26 -9 -40 -4 -26 -15 -84 -20
-110 -2 -8 -6 -31 -9 -50 -11 -76 -16 -107 -26 -153 -6 -26 -9 -51 -6 -54 3
-3 2 -15 -3 -28 -5 -13 -11 -43 -15 -66 -3 -24 -8 -51 -10 -59 -3 -8 -7 -33
-10 -55 -2 -22 -7 -51 -10 -65 -12 -59 -18 -97 -21 -120 -1 -14 -3 -25 -4 -25
-2 0 -7 -24 -13 -75 -3 -25 -11 -70 -17 -100 -6 -30 -13 -71 -16 -90 -3 -19
-7 -46 -10 -60 -13 -68 -14 -82 -9 -90 5 -9 260 116 293 142 6 6 12 7 12 2 0
-5 4 -4 8 1 4 6 43 29 87 50 44 22 109 56 145 76 36 20 132 71 214 114 83 42
167 88 188 101 21 13 38 22 38 19 0 -3 19 6 41 21 23 14 44 22 48 17 3 -5 29
-21 57 -35 27 -14 66 -35 85 -45 105 -59 372 -147 509 -168 25 -4 54 -10 65
-12 36 -9 408 -11 503 -2 157 13 209 20 239 28 37 11 96 6 101 -8 2 -6 10 -11
17 -11 8 0 21 -8 31 -18 10 -9 19 -16 21 -14 7 5 23 1 35 -11 11 -10 94 -54
353 -185 28 -14 67 -36 87 -49 21 -12 42 -23 48 -23 13 0 12 52 -1 110 -6 25
-12 59 -13 75 -2 17 -6 44 -10 60 -3 17 -8 44 -11 60 -2 17 -9 54 -14 84 -6
30 -9 56 -7 58 2 2 -2 24 -9 48 -13 43 -13 44 13 61 15 10 31 21 37 26 5 4 36
29 69 54 154 123 185 178 127 226 -37 29 -67 22 -124 -29 -29 -27 -54 -51 -57
-55 -10 -13 -83 -68 -90 -68 -11 0 -18 23 -26 78 -3 26 -8 50 -10 54 -2 3 -7
28 -10 54 -3 27 -9 56 -14 65 -5 9 -7 19 -4 22 4 3 1 28 -5 54 -6 26 -13 64
-16 83 -3 19 -8 42 -10 50 -2 8 -6 37 -10 64 -3 27 -8 52 -9 55 -2 3 -7 33
-11 66 -3 32 -9 63 -12 67 -2 5 -6 25 -8 46 -2 20 -6 46 -8 57 -3 11 -8 43
-11 70 -4 28 -9 58 -12 69 -4 10 -7 32 -8 47 l-2 29 345 0 346 0 19 -78 c31
-128 85 -281 137 -390 51 -105 134 -244 150 -250 5 -2 9 -8 9 -14 0 -22 196
-241 268 -300 116 -94 175 -135 287 -201 94 -55 395 -178 395 -161 0 2 8 0 18
-5 9 -5 33 -12 53 -15 20 -3 42 -8 50 -11 54 -20 244 -33 444 -30 121 2 227 6
235 8 8 3 49 8 89 12 41 3 77 8 80 10 4 2 24 6 46 9 83 13 102 18 185 42 47
13 92 26 100 28 8 2 56 21 105 43 162 70 322 178 433 293 46 48 53 59 48 84
-8 41 -34 66 -68 66 -21 0 -45 -15 -91 -57 -93 -85 -116 -104 -183 -150 -248
-168 -570 -245 -1039 -246 -134 -1 -263 7 -305 18 -8 2 -33 6 -54 10 -41 6
-235 60 -265 74 -112 52 -251 127 -251 135 -1 6 -2 251 -3 544 l-2 532 972 -1
973 0 36 36 36 36 0 309 0 309 -26 26 -27 27 -982 0 -982 1 0 601 0 601 25 14
c223 121 391 178 608 204 198 24 462 8 636 -37 136 -36 341 -129 376 -171 7
-8 17 -15 22 -15 6 0 38 -28 72 -62 126 -127 188 -264 194 -423 3 -78 16 -108
51 -122 37 -13 86 6 96 38 4 13 8 221 8 463 l0 439 -23 24 c-29 31 -74 30
-105 -2 -25 -24 -25 -26 -25 -215 l0 -191 -58 58 c-92 91 -110 105 -193 158
-204 128 -484 202 -794 210 -145 4 -220 -2 -386 -29 -234 -39 -581 -202 -770
-362 -70 -60 -226 -221 -269 -279 -25 -33 -48 -62 -51 -65 -3 -3 -30 -44 -59
-92 -44 -73 -56 -87 -74 -83 -12 3 -32 7 -46 9 -14 2 -41 7 -60 10 -19 3 -53
8 -75 10 -22 3 -51 7 -65 10 -14 2 -48 7 -77 10 -28 3 -57 8 -65 11 -13 5
-110 16 -140 16 -9 0 -19 8 -22 17 -2 9 -4 184 -4 387 1 204 -2 380 -6 391 -7
22 -44 44 -76 44 -11 0 -31 -11 -45 -25 l-25 -26 0 -190 0 -189 -64 65 c-35
36 -66 65 -69 65 -3 0 -19 12 -36 28 -103 90 -355 198 -546 233 -33 6 -67 13
-75 14 -13 3 -76 10 -165 20 -16 1 -42 3 -57 4 -18 1 -28 7 -28 16 0 8 -9 30
-20 50 -11 19 -20 37 -20 40 0 3 -21 47 -47 98 -26 50 -50 99 -53 107 -3 8
-63 130 -133 271 -70 141 -127 259 -127 263 0 9 -44 76 -50 76 -3 0 -22 -33
-44 -74z m708 -1011 c65 -7 237 -49 276 -66 14 -7 36 -16 50 -21 135 -53 265
-144 356 -251 62 -72 131 -223 134 -289 0 -8 -117 -1 -131 8 -4 2 -32 7 -61
10 -29 2 -63 7 -76 10 -12 2 -44 7 -70 9 -26 3 -58 8 -72 11 -14 3 -45 8 -70
10 -25 2 -56 6 -70 10 -14 4 -36 7 -50 8 -51 3 -73 18 -85 56 -5 18 -107 215
-116 226 -6 8 -8 14 -4 14 5 0 0 9 -11 21 -10 12 -18 23 -17 25 2 2 -17 44
-42 94 -62 128 -64 133 -28 127 15 -3 54 -9 87 -12z m2104 -855 c0 -308 -4
-522 -9 -526 -5 -3 -7 -9 -4 -13 2 -5 -88 -8 -200 -8 -135 1 -205 5 -205 12 0
5 -4 4 -9 -3 -6 -10 -27 -13 -75 -10 -39 2 -66 -1 -66 -7 -1 -5 -7 1 -14 15
-8 13 -13 31 -11 40 1 8 6 33 10 55 5 22 8 43 7 47 -2 10 118 128 130 128 5 0
8 3 6 8 -4 6 110 124 125 130 4 1 7 5 6 8 0 3 16 18 35 33 20 16 33 31 29 35
-3 3 1 6 10 6 8 0 19 9 22 20 4 11 11 18 16 15 5 -3 18 9 29 27 l20 33 -43 8
c-23 4 -53 9 -67 12 -14 2 -42 5 -62 7 -21 1 -40 8 -43 16 -6 15 37 90 89 157
17 22 35 46 41 53 5 7 25 28 44 47 19 19 30 35 25 35 -5 0 5 9 21 20 17 11 26
20 22 20 -5 0 6 12 25 27 18 16 44 38 58 50 14 13 28 23 32 23 4 0 7 -234 6
-520z m-10 -1327 c5 -10 9 -221 9 -470 0 -359 -2 -453 -13 -457 -7 -3 -15 2
-18 10 -3 9 -10 13 -15 9 -5 -3 -12 4 -16 15 -3 11 -10 20 -15 20 -13 0 -59
48 -52 54 3 3 0 6 -6 6 -6 0 -22 11 -36 25 -14 14 -22 25 -19 25 3 0 -6 9 -21
21 -14 11 -26 25 -26 31 0 6 -8 18 -18 27 -9 9 -28 33 -42 53 -14 21 -28 38
-32 38 -3 0 -9 13 -13 29 -3 16 -13 32 -21 35 -9 3 -13 10 -9 15 3 6 -1 13 -8
18 -14 8 -31 42 -29 56 1 4 -2 7 -8 7 -6 0 -9 3 -8 8 0 4 -15 42 -35 84 -21
42 -37 83 -37 90 0 8 -4 18 -9 23 -13 15 -62 175 -56 185 3 5 1 12 -5 15 -8 5
-8 11 -1 19 6 7 8 16 4 19 -3 4 118 7 270 7 253 0 277 -1 285 -17z m-2708
-897 c0 4 8 0 18 -9 9 -8 22 -17 27 -18 23 -4 55 -23 55 -31 0 -5 8 -8 18 -6
10 2 16 -2 14 -10 -1 -8 2 -11 7 -8 13 8 42 -4 35 -15 -3 -5 -2 -9 3 -8 22 4
43 -2 38 -11 -3 -5 0 -7 8 -4 8 3 28 -7 45 -21 17 -14 35 -26 39 -27 16 -1 39
-12 76 -35 20 -13 37 -21 37 -18 0 3 17 -5 38 -18 20 -13 81 -45 134 -71 54
-26 101 -52 104 -57 3 -5 -10 -10 -28 -10 -18 -1 -44 -3 -58 -5 -14 -2 -104
-5 -200 -6 -177 -2 -262 3 -361 23 -30 5 -65 12 -79 15 -14 3 -40 9 -58 15
-18 6 -41 12 -50 14 -9 2 -18 4 -19 5 -2 2 -6 3 -10 5 -5 1 -17 5 -28 10 -11
4 -41 16 -67 26 -74 29 -168 78 -168 89 0 8 18 24 30 25 10 1 75 38 80 45 3 4
22 13 43 19 20 7 37 16 37 19 0 4 15 13 33 21 17 8 39 20 47 27 8 7 20 14 25
15 6 1 28 10 50 20 36 16 42 16 62 3 13 -8 23 -11 23 -8z"/>
<path d="M6667 5085 c-76 -39 -90 -39 -161 -1 -27 14 -53 26 -57 26 -8 0 -5
-52 6 -121 6 -34 3 -40 -44 -85 -28 -27 -51 -54 -51 -61 0 -7 16 -15 35 -18
19 -3 51 -8 71 -11 36 -5 64 -24 64 -42 0 -13 32 -75 47 -90 11 -11 15 -8 25
15 7 15 16 30 19 33 4 3 14 22 22 43 9 20 22 37 29 38 7 0 22 2 33 4 11 3 35
5 53 7 18 1 36 6 38 10 3 5 10 6 15 3 5 -4 9 -2 9 3 0 14 -36 43 -43 35 -4 -3
-7 1 -7 10 0 10 -4 17 -10 17 -5 0 -10 7 -10 16 0 8 -4 12 -10 9 -5 -3 -10 1
-10 9 0 9 -4 16 -10 16 -10 0 -5 91 7 120 5 13 12 50 9 50 -1 0 -32 -16 -69
-35z"/>
<path d="M6570 3025 c-7 -8 -10 -15 -6 -15 3 0 -6 -19 -21 -42 -14 -24 -25
-43 -24 -43 1 0 -1 -7 -4 -17 -6 -15 -21 -20 -109 -34 -81 -12 -82 -14 -17
-77 58 -57 59 -59 56 -107 -1 -26 -6 -54 -11 -61 -12 -20 -14 -58 -3 -64 5 -4
39 10 75 29 36 20 73 36 83 36 9 0 47 -16 85 -36 l69 -37 -6 49 c-3 27 -9 68
-12 91 -7 41 -6 45 38 87 25 25 47 43 49 41 2 -2 9 4 16 15 14 23 8 25 -92 39
-37 5 -69 11 -71 13 -1 2 -17 32 -34 68 -40 80 -45 85 -61 65z"/>
</g>
</svg>
